<?xml version="1.0" encoding="utf-8"?>
<!-- Generator: Adobe Illustrator 18.0.0, SVG Export Plug-In . SVG Version: 6.00 Build 0)  -->
<!DOCTYPE svg PUBLIC "-//W3C//DTD SVG 1.1//EN" "http://www.w3.org/Graphics/SVG/1.1/DTD/svg11.dtd">
<svg version="1.1" id="レイヤー_1" xmlns="http://www.w3.org/2000/svg" xmlns:xlink="http://www.w3.org/1999/xlink" x="0px"
	 y="0px" viewBox="181.8 404 195.8 119" enable-background="new 181.8 404 195.8 119" xml:space="preserve">
<rect x="181.8" y="404" fill="#FFD2E8" width="195.8" height="119"/>
<g>
	<g>
		<path fill="#E74E95" d="M233.6,438.9c-13.3,0-24.2,10.8-24.2,24.2c0,13.3,10.8,24.2,24.2,24.2c5.2,0,10.1-1.7,14-4.5
			c0.3,2.5,2.4,4.5,5.1,4.5c2.8,0,5.1-2.3,5.1-5.1V463C257.8,449.7,247,438.9,233.6,438.9 M233.6,477c-7.7,0-14-6.3-14-14
			s6.3-14,14-14s14,6.3,14,14C247.6,470.8,241.4,477,233.6,477"/>
		<g>
			<path fill="#E74E95" d="M273.1,478.6c-0.3-0.2-0.6-0.3-0.9-0.5c-2.2-2.1-3.5-4.6-3.8-7.7c0.4-4.2,2.1-7.1,5.2-8.8
				c2.6-1.1,5.3-1.6,8-1.6h2.7c2.6,0,4-1.1,4-3.4s-1.3-3.5-4-3.5h-3.8c-6.1,0-11,1.8-14.6,5.3c-3.3,3.3-5,7.3-5,11.9
				c0,4.1,1.6,7.8,4.7,11.1c1.6,1.6,3.4,2.9,5.4,3.8C271,482.8,271.8,480.5,273.1,478.6z"/>
			<path fill="#E74E95" d="M286.3,484.1c0.5,0,0.9,0.1,1.4,0.2c-0.5-1.9-2.3-3.4-4.3-3.4c-2.5,0-4.5,2-4.5,4.5
				c0,0.6,0.1,1.2,0.4,1.7c0.4,0,0.8,0,1.2,0h2c0.2-0.7,0.5-1.4,1.1-2C284.3,484.5,285.3,484.1,286.3,484.1z"/>
		</g>
		<path fill="#E74E95" d="M294.8,480.7c0.6-0.7,1.5-1.1,2.5-1.1c1.9,0,3.5,1.5,3.5,3.5v4.1c0.1,0,0.2,0,0.3,0h2.4v-4.1
			c0-1,0.5-2,1.2-2.6h-3.4c-1.3,0-2.3-0.3-2.8-0.9c-0.6-0.6-1-1.3-1-2v-16.1c0-0.4,0.1-0.8,0.4-1.1c0.3-0.3,0.6-0.4,1-0.4h6.8
			c2.2,0,3.4-1.1,3.4-3.4s-1.1-3.5-3.4-3.5h-6.8c-0.4,0-0.7-0.1-1-0.4s-0.4-0.6-0.4-1v-3.5c0-2.3-1.1-3.5-3.4-3.5s-3.4,1.2-3.4,3.5
			v27.2C292.5,476.8,293.9,478.6,294.8,480.7z"/>
	</g>
	<g>
		<g>
			<path fill="#723E56" d="M320.4,479.9v-23.1c0-2.4-1.1-3.6-3.4-3.6s-3.4,1.2-3.4,3.6v23.1c1.1-0.4,2.2-0.7,3.4-0.7
				C318.3,479.2,319.4,479.5,320.4,479.9z"/>
			<path fill="#723E56" d="M314.4,449.2c0.8,0.8,1.8,1.2,2.8,1.2c1.1,0,2-0.4,2.7-1.2c0.7-0.8,1-1.8,1-3s-0.4-2.2-1.2-3
				c-0.8-0.8-1.7-1.2-2.7-1.2s-1.9,0.4-2.7,1.2c-0.8,0.8-1.2,1.7-1.2,2.9C313.2,447.5,313.6,448.5,314.4,449.2z"/>
		</g>
		<path fill="#723E56" d="M329.1,479.2h4.1v-17.7c0-0.4,0.1-0.8,0.4-1.1c0.3-0.3,0.6-0.4,1-0.4h4.9c2.2,0,3.4-1.1,3.4-3.4
			s-1.1-3.5-3.4-3.5h-4.9c-0.4,0-0.8-0.1-1-0.4c-0.3-0.3-0.4-0.6-0.4-1v-2.1c0.2-1.4,0.6-2.5,1.4-3.3c0.9-1,2.4-1.6,4.3-1.6h1.4
			c2.2,0,3.3-1.1,3.3-3.4s-1.1-3.4-3.3-3.4h-2.9c-2.6,0-5,0.9-7.1,2.6c-2.7,2.2-4,5.6-4,10.1v29C327.1,479.4,328,479.2,329.1,479.2z
			"/>
	</g>
	<g>
		<g>
			<path fill="#AD0081" d="M331.4,492.4c0.4,0,0.7-0.1,0.9-0.2c0.3-0.2,0.4-0.4,0.4-0.8c0-0.6-0.6-1.1-1.9-1.5l-2.5-0.8
				c-1.4-0.5-2.3-1-2.9-1.5c-0.7-0.6-1.1-1.5-1.1-2.6c0-1.4,0.5-2.5,1.6-3.1c0.8-0.5,1.9-0.7,3.1-0.7h4.5c0.9,0,1.4,0.5,1.4,1.4
				s-0.5,1.4-1.4,1.4h-5c-0.9,0-1.3,0.3-1.3,1c0,0.4,0.5,0.8,1.3,1.2c0.3,0.1,1.1,0.3,2.5,0.6c1.6,0.5,2.8,1.1,3.5,1.8
				c0.7,0.7,1,1.7,1,2.7c0,1.5-0.6,2.5-1.7,3.1c-0.7,0.4-1.7,0.5-2.9,0.5h-0.8h-4.6c-0.9,0-1.4-0.4-1.4-1.3s0.5-1.4,1.4-1.4h5.5
				L331.4,492.4z"/>
		</g>
		<g>
			<path fill="#AD0081" d="M337.7,479.2c0-0.9,0.5-1.4,1.4-1.4s1.4,0.5,1.4,1.4v1.4c0,0.2,0.1,0.3,0.2,0.4s0.3,0.2,0.4,0.2h2.8
				c0.9,0,1.4,0.5,1.4,1.4s-0.5,1.4-1.4,1.4H341c-0.1,0-0.3,0.1-0.4,0.2s-0.2,0.3-0.2,0.4v6.5c0,0.3,0.1,0.6,0.4,0.8
				c0.2,0.2,0.6,0.4,1.1,0.4h1.8c0.9,0,1.4,0.5,1.4,1.4s-0.5,1.3-1.4,1.3h-1.9c-1.5,0-2.6-0.4-3.3-1.3c-0.6-0.8-0.9-1.8-0.9-3.1
				v-11.4H337.7z"/>
		</g>
		<g>
			<path fill="#AD0081" d="M319.9,491c-0.7,0.7-1.7,1.2-2.8,1.2c-1.1,0-2.1-0.4-2.8-1.2c-1.5-1.5-1.5-4.1,0-5.6
				c0.7-0.7,1.7-1.2,2.8-1.2c0.5,0,1.1,0.1,1.5,0.3l-2.7,2.7c-0.6,0.6-0.6,1.5,0,2.1s1.5,0.6,2.1,0l4-4c0.6-0.6,0.6-1.5,0-2.1
				c-1.3-1.3-3.1-2-4.9-2c-1.9,0-3.6,0.7-4.9,2c-2.7,2.7-2.7,7.1,0,9.9c1.3,1.3,3.1,2,4.9,2c1.9,0,3.6-0.7,4.9-2
				c0.6-0.6,0.6-1.5,0-2.1C321.4,490.4,320.5,490.4,319.9,491z"/>
		</g>
		<g>
			<path fill="#AD0081" d="M283.4,475c-5.8,0-10.4,4.7-10.4,10.4c0,5.8,4.7,10.4,10.4,10.4c2.2,0,4.3-0.7,6-1.9l0.5,0.5
				c0.4,0.4,0.9,0.6,1.4,0.6s1-0.2,1.4-0.6c0.8-0.8,0.8-2,0-2.8l-0.5-0.5c1-1.6,1.6-3.5,1.6-5.6C293.8,479.7,289.1,475,283.4,475z
				 M283.4,491.9c-3.5,0-6.4-2.9-6.4-6.4s2.9-6.4,6.4-6.4s6.4,2.9,6.4,6.4c0,0.9-0.2,1.8-0.6,2.7l-1.5-1.5c-0.8-0.8-2-0.8-2.8,0
				s-0.8,2,0,2.8l1.6,1.6C285.6,491.6,284.5,491.9,283.4,491.9z"/>
		</g>
		<g>
			<path fill="#AD0081" d="M306.9,481.6c-0.8,0-1.5,0.7-1.5,1.5v6.3c0,1.8-1.5,3.3-3.3,3.3s-3.3-1.5-3.3-3.3v-6.3
				c0-0.8-0.7-1.5-1.5-1.5s-1.5,0.7-1.5,1.5v6.3c0,3.5,2.8,6.3,6.3,6.3c1.3,0,2.6-0.4,3.6-1.2c0.3,0.3,0.7,0.6,1.2,0.6
				c0.8,0,1.5-0.7,1.5-1.5v-10.5C308.4,482.3,307.7,481.6,306.9,481.6z"/>
		</g>
	</g>
</g>
</svg>
